<svg xmlns="http://www.w3.org/2000/svg" width="66" height="66" viewBox="0 0 66 66" fill="none"><circle cx="33" cy="33" r="33" fill="#FED12E"></circle><path d="M32.2227 42.0586H42.2422V47H24.293L24.2344 43.4258L32.7891 34.4023C34.0391 33.0742 34.957 31.9414 35.5625 30.9648C36.1484 29.9883 36.4609 28.9922 36.4609 27.957C36.4609 27.2539 36.3047 26.6289 35.9922 26.0625C35.6797 25.4961 35.2305 25.0469 34.6836 24.7148C34.1367 24.4023 33.5117 24.2266 32.8086 24.2266C30.8164 24.2266 29.2148 25.2227 28.0234 27.1953L24.1172 24.4023C24.9766 22.8398 26.168 21.5703 27.6914 20.6328C29.1953 19.6953 31.0312 19.207 33.2188 19.207C34.3711 19.207 35.4648 19.4023 36.5195 19.7734C37.5742 20.1641 38.4922 20.6914 39.3125 21.375C40.1133 22.0586 40.7578 22.918 41.2266 23.9531C41.6953 25.0078 41.9492 26.1406 41.9492 27.3711C41.9492 28.9922 41.6172 30.4961 40.9531 31.8633C40.2891 33.25 39.1172 34.832 37.3984 36.6094L32.2227 41.9609V42.0586Z" fill="#06412D"></path></svg>