<svg xmlns="http://www.w3.org/2000/svg" width="66" height="66" viewBox="0 0 66 66" fill="none"><circle cx="33" cy="33" r="33" fill="#FED12E"></circle><path d="M36.8477 32.8203C38.1953 33.4453 39.25 34.3438 40.0312 35.4766C40.793 36.6289 41.1836 37.9766 41.1836 39.5391C41.1836 41.1016 40.7734 42.4688 39.9727 43.6406C39.1719 44.832 38.0781 45.75 36.6719 46.375C35.2656 47.0195 33.6641 47.332 31.9062 47.332C29.5234 47.332 27.4727 46.7852 25.7344 45.6523C23.9766 44.5391 22.7656 43.0938 22.0625 41.2969L26.7891 39.3242C27.5703 41.3945 29.1523 42.4297 31.5352 42.4297C32.668 42.4297 33.625 42.0977 34.4062 41.4336C35.1875 40.7695 35.5977 39.8906 35.5977 38.7773C35.5977 37.7227 35.1875 36.8633 34.4062 36.1602C33.625 35.457 32.5117 35.1055 31.0664 35.1055H29.0938V30.6914H31.5156C32.6875 30.6914 33.5664 30.3984 34.1719 29.793C34.7578 29.1875 35.0703 28.4062 35.0703 27.4492C35.0703 26.4727 34.7188 25.6719 34.0156 25.0469C33.3125 24.4219 32.4531 24.1094 31.4375 24.1094C29.6406 24.1094 28.293 24.8906 27.4336 26.4141L23.0977 24.0898C23.7227 22.6445 24.7969 21.4531 26.3203 20.5547C27.8242 19.6562 29.5625 19.207 31.5547 19.207C32.7852 19.207 33.9375 19.3828 35.0117 19.6953C36.0664 20.0273 37.0039 20.4961 37.8047 21.1016C38.5859 21.7266 39.2109 22.4883 39.6797 23.4258C40.1484 24.3633 40.3828 25.418 40.3828 26.5508C40.3828 27.8789 40.0703 29.0703 39.4453 30.125C38.8203 31.1992 37.9609 32.0586 36.8477 32.7227V32.8203Z" fill="#06412D"></path></svg>