<svg xmlns="http://www.w3.org/2000/svg" width="60" height="60" viewBox="0 0 60 60" fill="none"><circle cx="29.8683" cy="30.3304" r="29.4464" fill="#B08442"></circle><path d="M44.7384 36.0008L36.9862 32.5271L36.9648 32.5172C36.5624 32.3451 36.1234 32.276 35.6875 32.3162C35.2517 32.3564 34.8327 32.5047 34.4685 32.7476C34.4257 32.7759 34.3845 32.8066 34.3451 32.8397L30.3399 36.2542C27.8024 35.0217 25.1827 32.4217 23.9502 29.9172L27.3697 25.8511C27.4026 25.8099 27.4338 25.7688 27.4635 25.7243C27.7011 25.3612 27.8453 24.9449 27.8832 24.5125C27.9211 24.0802 27.8515 23.6451 27.6807 23.2461V23.2264L24.197 15.461C23.9712 14.9398 23.5828 14.5057 23.0899 14.2233C22.597 13.941 22.026 13.8256 21.4621 13.8945C19.2324 14.1879 17.1857 15.2829 15.7043 16.9751C14.2229 18.6673 13.4081 20.8408 13.4121 23.0898C13.4121 36.1555 24.0424 46.7858 37.108 46.7858C39.357 46.7898 41.5305 45.975 43.2227 44.4936C44.9149 43.0122 46.0099 40.9655 46.3033 38.7357C46.3723 38.1721 46.2572 37.6012 45.9752 37.1083C45.6931 36.6154 45.2593 36.227 44.7384 36.0008ZM37.108 44.1529C31.5236 44.1468 26.1697 41.9257 22.2209 37.9769C18.2722 34.0281 16.0511 28.6742 16.045 23.0898C16.0388 21.4829 16.6177 19.9287 17.6737 18.7174C18.7296 17.5062 20.1903 16.7207 21.783 16.5076C21.7824 16.5142 21.7824 16.5208 21.783 16.5274L25.2387 24.2614L21.8373 28.3325C21.8028 28.3723 21.7714 28.4146 21.7435 28.4593C21.4959 28.8392 21.3506 29.2768 21.3218 29.7294C21.293 30.182 21.3816 30.6344 21.579 31.0428C23.0698 34.092 26.1421 37.1412 29.2242 38.6304C29.6355 38.826 30.0905 38.9115 30.5448 38.8786C30.9991 38.8457 31.437 38.6956 31.8159 38.4428C31.8582 38.4144 31.8988 38.3836 31.9377 38.3507L35.938 34.9378L43.6721 38.4017H43.6902C43.4798 39.9966 42.6954 41.4603 41.4839 42.5189C40.2724 43.5774 38.7168 44.1583 37.108 44.1529Z" fill="#F8E1BF"></path></svg>