<svg xmlns="http://www.w3.org/2000/svg" width="60" height="60" viewBox="0 0 60 60" fill="none"><circle cx="30.4289" cy="30.3304" r="29.4464" fill="#800039"></circle><path d="M30.428 35.267C31.7609 35.267 32.8963 34.7734 33.9001 33.8025C34.871 32.7987 35.3646 31.6633 35.3646 30.3304C35.3646 28.9975 34.871 27.8621 33.9001 26.8583C32.8963 25.8875 31.7609 25.3938 30.428 25.3938C29.0951 25.3938 27.9597 25.8875 26.9559 26.8583C25.9851 27.8621 25.4914 28.9975 25.4914 30.3304C25.4914 31.6633 25.9851 32.7987 26.9559 33.8025C27.9597 34.7734 29.0951 35.267 30.428 35.267ZM30.428 13.8751C34.9532 13.8751 38.8202 15.5206 42.029 18.7294C45.2378 21.9382 46.8834 25.8052 46.8834 30.3304V32.7164C46.8834 34.362 46.3074 35.7607 45.2378 36.9126C44.086 38.0151 42.7695 38.5581 41.124 38.5581C39.1494 38.5581 37.5203 37.7353 36.2861 36.0898C34.6406 37.7353 32.6989 38.5581 30.428 38.5581C28.1736 38.5581 26.2319 37.7353 24.6028 36.1556C23.0231 34.5265 22.2003 32.6013 22.2003 30.3304C22.2003 28.076 23.0231 26.1343 24.6028 24.5052C26.2319 22.9255 28.1736 22.1027 30.428 22.1027C32.6989 22.1027 34.6241 22.9255 36.2532 24.5052C37.8329 26.1343 38.6557 28.076 38.6557 30.3304V32.7164C38.6557 33.3911 38.919 33.9835 39.4126 34.4936C39.9063 35.0037 40.4822 35.267 41.124 35.267C41.8151 35.267 42.3911 35.0037 42.8847 34.4936C43.3784 33.9835 43.5923 33.3911 43.5923 32.7164V30.3304C43.5923 26.7267 42.3252 23.6331 39.7253 21.0331C37.1253 18.4332 34.0317 17.1661 30.428 17.1661C26.8243 17.1661 23.7307 18.4332 21.1307 21.0331C18.5308 23.6331 17.2637 26.7267 17.2637 30.3304C17.2637 33.9341 18.5308 37.0277 21.1307 39.6277C23.7307 42.2276 26.8243 43.4947 30.428 43.4947H38.6557V46.7858H30.428C25.9028 46.7858 22.0358 45.1402 18.827 41.9314C15.6182 38.7226 13.9727 34.8556 13.9727 30.3304C13.9727 25.8052 15.6182 21.9382 18.827 18.7294C22.0358 15.5206 25.9028 13.8751 30.428 13.8751Z" fill="#FEB3D2"></path></svg>