<svg xmlns="http://www.w3.org/2000/svg" width="68" height="68" viewBox="0 0 68 68" fill="none"><circle cx="34" cy="34" r="34" fill="#800039"></circle><path d="M32.4561 45.3174H43.9785V51H23.3369L23.2695 46.8896L33.1074 36.5127C34.5449 34.9854 35.6006 33.6826 36.2969 32.5596C36.9707 31.4365 37.3301 30.291 37.3301 29.1006C37.3301 28.292 37.1504 27.5732 36.791 26.9219C36.4316 26.2705 35.915 25.7539 35.2861 25.3721C34.6572 25.0127 33.9385 24.8105 33.1299 24.8105C30.8389 24.8105 28.9971 25.9561 27.627 28.2246L23.1348 25.0127C24.123 23.2158 25.4932 21.7559 27.2451 20.6777C28.9746 19.5996 31.0859 19.0381 33.6016 19.0381C34.9268 19.0381 36.1846 19.2627 37.3975 19.6895C38.6104 20.1387 39.666 20.7451 40.6094 21.5312C41.5303 22.3174 42.2715 23.3057 42.8105 24.4961C43.3496 25.709 43.6416 27.0117 43.6416 28.4268C43.6416 30.291 43.2598 32.0205 42.4961 33.5928C41.7324 35.1875 40.3848 37.0068 38.4082 39.0508L32.4561 45.2051V45.3174Z" fill="#FEB3D2"></path></svg>