<svg xmlns="http://www.w3.org/2000/svg" width="68" height="68" viewBox="0 0 68 68" fill="none"><circle cx="34" cy="34" r="34" fill="#800039"></circle><path d="M39.9248 34.6934C41.4746 35.4121 42.6875 36.4453 43.5859 37.748C44.4619 39.0732 44.9111 40.623 44.9111 42.4199C44.9111 44.2168 44.4395 45.7891 43.5186 47.1367C42.5977 48.5068 41.3398 49.5625 39.7227 50.2812C38.1055 51.0225 36.2637 51.3818 34.2422 51.3818C31.502 51.3818 29.1436 50.7529 27.1445 49.4502C25.123 48.1699 23.7305 46.5078 22.9219 44.4414L28.3574 42.1729C29.2559 44.5537 31.0752 45.7441 33.8154 45.7441C35.1182 45.7441 36.2188 45.3623 37.1172 44.5986C38.0156 43.835 38.4873 42.8242 38.4873 41.5439C38.4873 40.3311 38.0156 39.3428 37.1172 38.5342C36.2188 37.7256 34.9385 37.3213 33.2764 37.3213H31.0078V32.2451H33.793C35.1406 32.2451 36.1514 31.9082 36.8477 31.2119C37.5215 30.5156 37.8809 29.6172 37.8809 28.5166C37.8809 27.3936 37.4766 26.4727 36.668 25.7539C35.8594 25.0352 34.8711 24.6758 33.7031 24.6758C31.6367 24.6758 30.0869 25.5742 29.0986 27.3262L24.1123 24.6533C24.8311 22.9912 26.0664 21.6211 27.8184 20.5879C29.5479 19.5547 31.5469 19.0381 33.8379 19.0381C35.2529 19.0381 36.5781 19.2402 37.8135 19.5996C39.0264 19.9814 40.1045 20.5205 41.0254 21.2168C41.9238 21.9355 42.6426 22.8115 43.1816 23.8896C43.7207 24.9678 43.9902 26.1807 43.9902 27.4834C43.9902 29.0107 43.6309 30.3809 42.9121 31.5938C42.1934 32.8291 41.2051 33.8174 39.9248 34.5811V34.6934Z" fill="#FEB3D2"></path></svg>